<svg width="271" height="47" viewBox="0 0 271 47" fill="none" xmlns="http://www.w3.org/2000/svg">
<rect width="271" height="47"/>
<path d="M0.408 33.008C0.408 42.736 7.192 46.768 13.848 46.768C20.504 46.768 27.352 42.8 27.352 33.008V4.912C27.352 2.032 26.136 0.815998 23.256 0.815998H8.472V6.32H19.544C20.44 6.32 20.952 6.768 20.952 7.728V32.752C20.952 38.64 17.496 40.752 13.912 40.752C10.392 40.752 6.808 38.768 6.808 32.496V30.768H0.408V33.008ZM37.7495 34.352C37.7495 42.928 41.4615 46.768 48.7575 46.768C55.1575 46.768 59.3175 42.544 60.6615 39.344H60.7895C60.7895 39.344 60.7255 40.176 60.7255 41.2V42.416C60.7255 44.72 62.0695 46 64.8215 46H70.7735V40.688H68.1495C67.2535 40.688 66.7415 40.24 66.7415 39.28V13.616H60.5335V28.784C60.5335 35.184 56.6295 41.008 49.9735 41.008C44.8535 41.008 43.9575 37.424 43.9575 32.944V17.584C43.9575 14.832 42.7415 13.616 39.7975 13.616H33.7175V18.928H36.3415C37.2375 18.928 37.7495 19.376 37.7495 20.336V34.352ZM73.9155 41.072C73.9155 41.072 78.2035 46.768 86.8435 46.768C93.6275 46.768 98.7475 43.056 98.7475 37.296C98.7475 26.48 81.0835 27.824 81.0835 21.68C81.0835 19.12 83.4515 17.84 87.0995 17.84C89.0835 17.84 91.9635 18.672 91.9635 20.592V22.192H97.5315V19.12C97.5315 14.192 90.8115 12.848 86.9075 12.848C80.3155 12.848 74.8755 15.728 74.8755 21.936C74.8755 32.368 92.5395 31.728 92.5395 37.552C92.5395 40.368 89.9155 41.712 86.9075 41.712C80.9555 41.712 77.1155 36.912 77.1155 36.912L73.9155 41.072ZM106.946 34.16C106.946 44.976 115.202 46.256 119.298 46.256C120.642 46.256 121.474 46.128 121.474 46.128V40.624C121.474 40.624 120.898 40.752 120.002 40.752C117.634 40.752 113.154 39.92 113.154 33.456V18.608H120.898V13.616H113.154V4.72H107.074V13.616H102.722V18.608H106.946V34.16ZM140.454 46H148.838V7.664H155.814C156.71 7.664 157.222 8.176 157.222 9.072V11.824H164.582V4.656C164.582 1.648 163.558 0.559998 160.486 0.559998H128.806C125.734 0.559998 124.71 1.648 124.71 4.656V11.824H132.07V9.072C132.07 8.176 132.582 7.664 133.478 7.664H140.454V46ZM162.798 29.68C162.798 38.96 169.518 46.768 180.334 46.768C188.462 46.768 193.454 41.84 193.454 41.84L190.062 36.208C190.062 36.208 186.158 39.856 180.91 39.856C175.982 39.856 171.758 36.848 171.118 31.088H193.646C193.646 31.088 193.838 29.04 193.838 28.08C193.838 19.44 188.718 12.592 179.374 12.592C169.582 12.592 162.798 19.632 162.798 29.68ZM171.374 25.456C172.27 21.36 175.214 18.864 179.374 18.864C182.702 18.864 185.39 21.552 185.518 25.456H171.374ZM198.423 29.68C198.423 39.152 205.335 46.768 216.087 46.768C224.983 46.768 229.847 40.88 229.847 40.88L226.455 35.248C226.455 35.248 222.359 39.664 216.791 39.664C211.543 39.664 206.615 36.272 206.615 29.616C206.615 23.728 210.647 19.44 216.279 19.44C218.263 19.44 220.951 20.208 220.951 22V23.792H228.119V19.952C228.119 14.32 220.503 12.592 216.279 12.592C205.079 12.592 198.423 20.464 198.423 29.68ZM235.681 46H243.809V31.024C243.809 29.488 243.937 28.08 244.321 26.8C245.537 22.832 248.865 20.016 253.153 20.016C257.249 20.016 258.337 22.704 258.337 26.672V41.648C258.337 44.72 259.617 46 262.625 46H270.369V39.152H267.809C266.913 39.152 266.401 38.64 266.401 37.744V25.008C266.401 16.368 262.305 12.592 255.009 12.592C249.377 12.592 245.345 15.92 243.809 19.056H243.681C243.681 19.056 243.809 17.904 243.809 16.304V4.848C243.809 1.904 242.465 0.559998 239.457 0.559998H231.713V7.472H234.273C235.169 7.472 235.681 7.92 235.681 8.88V46Z" fill="white"/>
</svg>
