<svg width="727" height="687" viewBox="0 0 727 687" fill="none" xmlns="http://www.w3.org/2000/svg">
<path d="M335.218 648.541C319.584 630.111 280.548 594.183 248.471 568.7C153.428 493.196 140.493 482.269 101.903 444.889C30.7617 375.977 0.548892 306.743 0.652426 212.868C0.702943 167.041 3.67218 149.386 15.8716 122.374C36.5687 76.5452 67.0567 42.491 106.036 21.6632C133.643 6.91168 147.259 0.357817 193.361 0.0896902C241.588 -0.190677 251.74 5.72455 280.108 22.1193C314.638 42.0744 350.178 84.7221 357.525 115.017L362.062 133.728L373.252 107.959C436.485 -37.6644 638.367 -35.4857 708.623 111.578C730.91 158.231 733.357 257.846 713.594 313.959C687.814 387.156 639.393 442.96 527.46 528.474C454.053 584.556 370.972 669.408 365.189 681.326C358.475 695.16 364.869 683.494 335.218 648.541Z" fill="#E8338C"/>
<path d="M449.615 341.133C443.611 376.568 414.593 404.916 378.32 410.781C318.532 420.312 267.75 370.703 277.506 312.296C283.51 276.861 312.528 248.514 348.801 242.648C408.589 233.118 459.371 282.727 449.615 341.133ZM517.657 265.62C492.892 206.236 433.354 164.203 363.56 164.203C293.766 164.203 234.229 205.992 209.463 265.376C225.724 280.772 235.98 302.521 235.98 326.47C235.98 350.42 225.724 372.169 209.463 387.565C234.229 446.949 293.766 488.738 363.56 488.738C433.354 488.738 492.892 446.705 517.657 387.321C501.397 371.925 491.391 350.175 491.391 326.226C491.391 302.277 501.397 280.772 517.657 265.131V265.62Z" fill="#FEFEFE"/>
<path d="M164.435 279.306C137.668 279.306 115.904 300.567 115.904 326.715C115.904 352.864 137.668 374.125 164.435 374.125C191.202 374.125 212.965 352.864 212.965 326.715C212.965 300.567 191.202 279.306 164.435 279.306Z" fill="#FEFEFE"/>
<path d="M562.686 279.306C535.919 279.306 514.155 300.567 514.155 326.715C514.155 352.864 535.919 374.125 562.686 374.125C589.453 374.125 611.216 352.864 611.216 326.715C611.216 300.567 589.453 279.306 562.686 279.306Z" fill="#FEFEFE"/>
</svg>
